<?xml version="1.0" standalone="no"?>
<!DOCTYPE svg PUBLIC "-//W3C//DTD SVG 20010904//EN"
 "http://www.w3.org/TR/2001/REC-SVG-20010904/DTD/svg10.dtd">
<svg version="1.0" xmlns="http://www.w3.org/2000/svg"
 width="600.000000pt" height="600.000000pt" viewBox="0 0 600.000000 600.000000"
 preserveAspectRatio="xMidYMid meet">
<metadata>
Created by potrace 1.10, written by Peter Selinger 2001-2011
</metadata>
<g transform="translate(0.000000,600.000000) scale(0.100000,-0.100000)"
fill="#000000" stroke="none">
<path d="M720 3338 c-47 -31 -80 -67 -80 -89 0 -11 -4 -19 -10 -19 -16 0 -11
-84 7 -121 41 -84 108 -117 235 -117 89 0 112 -6 141 -35 17 -17 21 -34 22
-79 0 -52 -3 -61 -33 -90 l-32 -33 -158 -1 c-86 -1 -165 -2 -174 -3 -21 -1
-24 -31 -6 -49 17 -17 281 -16 331 1 45 16 117 83 117 110 0 10 4 26 9 35 14
27 -11 108 -44 142 -48 50 -78 60 -184 60 -104 0 -132 9 -163 51 -27 36 -28
111 -1 147 39 53 67 61 203 61 69 0 131 0 138 0 8 1 12 10 10 24 -3 22 -6 22
-148 24 -135 3 -147 1 -180 -19z"/>
<path d="M1543 3344 c-6 -15 1 -34 43 -117 8 -16 14 -36 14 -45 0 -9 6 -29 14
-44 8 -15 17 -40 21 -57 4 -17 11 -33 16 -36 5 -4 9 -16 9 -29 0 -12 7 -31 15
-42 8 -10 15 -28 15 -39 0 -11 6 -30 14 -41 8 -11 17 -37 21 -57 4 -20 11 -37
15 -37 4 0 11 -17 15 -37 6 -35 28 -62 51 -63 12 0 54 92 54 120 0 11 4 20 10
20 5 0 12 17 16 38 4 20 13 46 20 57 8 11 14 29 14 40 0 11 7 29 15 39 8 11
15 27 15 37 0 9 7 30 15 45 8 16 15 38 15 49 0 11 7 29 15 39 8 11 15 29 15
41 0 12 5 26 11 32 20 20 28 81 13 94 -18 15 -44 -5 -44 -35 0 -11 -7 -30 -15
-40 -8 -11 -15 -30 -15 -42 0 -13 -4 -25 -9 -29 -5 -3 -12 -19 -16 -36 -4 -17
-13 -42 -21 -57 -8 -15 -14 -36 -14 -47 0 -11 -7 -29 -15 -39 -8 -11 -15 -27
-15 -37 0 -9 -7 -30 -15 -45 -8 -16 -15 -37 -15 -47 0 -9 -4 -25 -9 -35 -6 -9
-12 -30 -16 -45 -5 -24 -8 -27 -21 -16 -8 6 -19 31 -25 56 -6 24 -15 46 -20
49 -5 3 -9 15 -9 27 0 12 -7 35 -15 51 -8 15 -15 36 -15 45 0 10 -7 26 -15 37
-8 10 -15 28 -15 39 0 11 -7 33 -15 49 -8 15 -15 36 -15 45 0 9 -6 25 -13 36
-8 11 -17 35 -21 54 -11 58 -58 93 -73 55z"/>
<path d="M2087 3353 c-11 -10 -8 -36 8 -67 8 -15 15 -36 15 -45 0 -9 6 -25 14
-36 7 -11 16 -37 20 -57 4 -21 11 -38 16 -38 6 0 10 -13 10 -28 0 -16 7 -37
15 -48 8 -10 15 -28 15 -40 0 -11 7 -29 15 -40 8 -10 15 -28 15 -40 0 -11 7
-29 15 -40 8 -10 15 -26 15 -34 0 -8 6 -27 14 -42 8 -15 17 -40 21 -56 8 -36
44 -50 63 -25 6 9 12 22 12 29 0 6 7 25 15 40 8 16 15 39 15 52 0 12 4 22 9
22 5 0 12 14 16 31 4 17 13 42 21 57 8 15 14 36 14 47 0 11 7 29 15 39 8 11
15 29 15 40 0 12 7 30 15 40 8 11 15 31 15 45 0 14 7 35 15 45 8 11 15 28 15
38 0 10 7 30 16 43 10 16 14 34 10 50 -7 29 -34 33 -42 8 -3 -10 -12 -30 -20
-45 -8 -14 -14 -33 -14 -41 0 -8 -7 -28 -15 -43 -8 -16 -15 -39 -15 -51 0 -13
-4 -23 -10 -23 -5 0 -12 -17 -16 -37 -4 -21 -13 -47 -20 -58 -8 -11 -14 -27
-14 -36 0 -9 -7 -30 -15 -45 -8 -16 -15 -39 -15 -51 0 -12 -4 -24 -9 -27 -5
-4 -12 -24 -16 -47 -9 -53 -35 -50 -50 8 -5 23 -13 45 -17 49 -5 4 -8 14 -8
23 0 9 -6 28 -14 42 -7 14 -16 42 -20 62 -4 21 -11 37 -16 37 -6 0 -10 10 -10
23 0 12 -7 35 -15 51 -8 15 -15 36 -15 45 0 10 -7 26 -15 37 -8 10 -15 27 -15
37 0 10 -9 38 -20 63 -19 41 -37 54 -53 37z"/>
<path d="M2620 3350 c-13 -8 -13 -12 0 -34 19 -33 131 -197 145 -213 66 -79
67 -83 64 -237 -3 -142 2 -176 26 -176 22 0 26 31 24 191 -2 109 1 161 10 170
27 33 111 149 111 155 0 3 14 23 30 44 17 21 30 41 30 45 0 4 7 13 17 20 19
14 11 45 -11 45 -14 0 -86 -79 -86 -94 0 -4 -17 -30 -38 -59 -21 -29 -50 -71
-63 -94 -25 -42 -26 -42 -45 -25 -10 10 -28 35 -39 55 -11 20 -23 37 -27 37
-5 0 -8 6 -8 13 0 8 -9 25 -20 38 -33 40 -53 69 -72 107 -12 24 -25 27 -48 12z"/>
<path d="M3164 3345 c-11 -29 8 -35 107 -35 l99 0 0 -294 c0 -162 3 -301 6
-310 8 -21 30 -20 39 1 3 10 5 148 4 308 l-2 290 104 5 c96 5 104 7 104 25 0
19 -7 20 -228 22 -189 2 -229 0 -233 -12z"/>
<path d="M3701 3351 c-8 -5 -11 -16 -8 -25 6 -14 35 -16 237 -16 l231 0 -3 23
c-3 22 -3 22 -223 24 -121 2 -226 -1 -234 -6z"/>
<path d="M4476 3353 c-67 -17 -205 -124 -206 -159 0 -6 -7 -17 -15 -24 -8 -7
-15 -23 -15 -36 0 -12 -4 -26 -10 -29 -12 -8 -13 -142 -1 -149 4 -3 11 -24 15
-46 3 -22 11 -40 16 -40 6 0 10 -6 10 -14 0 -15 105 -116 121 -116 6 0 17 -7
25 -15 9 -8 28 -15 43 -15 16 0 42 -5 59 -11 55 -19 173 18 239 75 28 24 29
32 4 46 -15 7 -24 6 -36 -6 -39 -40 -89 -56 -170 -58 -115 -1 -182 33 -243
127 -25 39 -27 50 -27 142 0 97 1 102 33 150 40 60 88 96 159 118 65 21 82 21
146 0 53 -17 66 -25 95 -55 20 -22 51 -23 59 -2 6 17 -33 64 -54 64 -7 0 -13
4 -13 10 0 5 -12 13 -27 16 -15 4 -38 13 -52 20 -25 13 -115 17 -155 7z"/>
<path d="M4849 3353 c-1 -5 -2 -149 -3 -322 -1 -330 3 -361 39 -331 15 13 17
29 12 147 -4 90 -3 134 5 139 15 10 389 11 395 1 3 -5 4 -70 4 -146 -2 -116 1
-139 14 -144 22 -9 45 2 45 22 4 139 -3 628 -8 633 -4 4 -18 5 -30 1 -23 -6
-24 -7 -21 -152 l3 -146 -185 -3 c-101 -1 -194 0 -206 3 -22 5 -22 7 -16 140
5 101 3 138 -7 150 -13 16 -39 21 -41 8z"/>
<path d="M1340 3333 c-1 -10 -9 -36 -20 -58 -11 -22 -19 -45 -20 -51 0 -7 -7
-25 -15 -40 -8 -16 -15 -39 -15 -51 0 -13 -4 -23 -10 -23 -5 0 -12 -17 -16
-37 -4 -21 -13 -47 -20 -58 -8 -11 -14 -27 -14 -36 0 -9 -7 -30 -15 -45 -8
-16 -15 -38 -15 -49 0 -11 -7 -29 -15 -39 -8 -11 -15 -28 -15 -38 0 -10 -7
-30 -16 -43 -18 -28 -12 -75 9 -75 12 0 57 87 57 109 0 5 7 22 15 37 8 16 15
38 15 49 0 11 7 29 15 39 8 11 15 29 15 40 0 12 7 30 15 40 8 11 15 27 15 37
0 9 7 30 15 45 8 16 15 39 15 51 0 12 4 24 9 27 5 4 12 24 16 46 9 55 40 56
50 3 4 -21 10 -42 14 -48 4 -5 18 -44 30 -85 13 -41 28 -79 32 -85 5 -5 9 -18
9 -30 0 -12 7 -30 15 -41 8 -10 15 -28 15 -40 0 -11 7 -29 15 -40 8 -10 14
-28 15 -39 0 -34 44 -116 60 -113 20 4 25 54 7 81 -8 12 -18 37 -21 55 -4 17
-12 34 -17 37 -5 4 -9 16 -9 29 0 12 -7 31 -15 42 -8 10 -15 28 -15 40 0 11
-7 29 -15 40 -8 10 -15 28 -15 39 0 11 -6 32 -14 47 -8 15 -17 40 -21 57 -4
17 -11 33 -16 36 -5 4 -9 14 -9 23 0 9 -6 29 -14 44 -8 15 -17 40 -21 57 -5
26 -11 31 -36 31 -21 0 -29 -5 -29 -17z"/>
<path d="M3698 3043 c-6 -8 -6 -19 2 -32 10 -20 19 -21 190 -21 l180 0 6 25
c4 14 4 29 0 32 -12 13 -367 9 -378 -4z"/>
<path d="M3698 2743 c-6 -8 -6 -19 2 -33 11 -20 17 -20 233 -18 l222 3 3 28
c2 15 0 27 -5 28 -4 0 -106 1 -226 2 -159 1 -221 -1 -229 -10z"/>
</g>
</svg>
